<?xml version="1.0" encoding="UTF-8" standalone="no"?>
<svg
   xmlns:dc="http://purl.org/dc/elements/1.1/"
   xmlns:cc="http://creativecommons.org/ns#"
   xmlns:rdf="http://www.w3.org/1999/02/22-rdf-syntax-ns#"
   xmlns:svg="http://www.w3.org/2000/svg"
   xmlns="http://www.w3.org/2000/svg"
   xmlns:sodipodi="http://sodipodi.sourceforge.net/DTD/sodipodi-0.dtd"
   xmlns:inkscape="http://www.inkscape.org/namespaces/inkscape"
   xml:space="preserve"
   enable-background="new 0 0 800 190.803"
   viewBox="0 0 800 190.803"
   height="190.803px"
   width="800px"
   y="0px"
   x="0px"
   id="Layer_1"
   version="1.1"
   sodipodi:docname="amd.svg"
   inkscape:version="0.92.4 5da689c313, 2019-01-14"><sodipodi:namedview
   pagecolor="#ffffff"
   bordercolor="#666666"
   borderopacity="1"
   objecttolerance="10"
   gridtolerance="10"
   guidetolerance="10"
   inkscape:pageopacity="0"
   inkscape:pageshadow="2"
   inkscape:window-width="1280"
   inkscape:window-height="747"
   id="namedview15"
   showgrid="false"
   inkscape:zoom="0.43625"
   inkscape:cx="400"
   inkscape:cy="95.401497"
   inkscape:window-x="0"
   inkscape:window-y="0"
   inkscape:window-maximized="1"
   inkscape:current-layer="Layer_1" /><metadata
   id="metadata23"><rdf:RDF><cc:Work
       rdf:about=""><dc:format>image/svg+xml</dc:format><dc:type
         rdf:resource="http://purl.org/dc/dcmitype/StillImage" /><dc:title></dc:title></cc:Work></rdf:RDF></metadata>
<defs
   id="defs21" >
</defs>
<g
   id="clear_space">
</g>
<g
   id="logo" transform="scale(0.30)" >
	<g
   id="g9">	
	</g>
	<g
   id="g15">
		
		<g
   id="g33">
<path
     style=""
     d="M187.888,178.12H143.52l-13.573-32.735H56.003L43.637,178.12H0L66.667,12.776h47.761L187.888,178.12z M91.155,52.285    L66.912,116.53h50.913L91.155,52.285z"
     id="path3" /><path
     style=""
     d="M349.056,12.776h35.88V178.12h-41.219V74.842l-44.608,51.878h-6.301l-44.605-51.878V178.12h-41.219V12.776h35.88    l53.093,61.336L349.056,12.776z"
     id="path5" /><path
     style=""
     d="M489.375,12.776c60.364,0,91.391,37.573,91.391,82.909c0,47.517-30.058,82.435-96,82.435h-68.369V12.776H489.375z     M457.613,147.815h26.906c41.457,0,53.823-28.127,53.823-52.375c0-28.368-15.276-52.363-54.308-52.363h-26.422V147.815    L457.613,147.815z"
     id="path7" /><polygon
     fill="#00A76D"
     points="748.028,51.981 662.769,51.981 610.797,0 800,0 800,189.21 748.028,137.235   "
     id="polygon11" /><polygon
     fill="#00A76D"
     points="662.708,137.296 662.708,62.397 609.2,115.901 609.2,190.804 684.089,190.804 737.594,137.296       "
     id="polygon13" />
</g>
	</g>
</g>
</svg>