<?xml version="1.0" encoding="UTF-8"?>
<svg version="1.1" viewBox="0 0 730.48 381.09" xml:space="preserve" xmlns="http://www.w3.org/2000/svg" xmlns:cc="http://creativecommons.org/ns#" xmlns:dc="http://purl.org/dc/elements/1.1/" xmlns:rdf="http://www.w3.org/1999/02/22-rdf-syntax-ns#">
<metadata>
<rdf:RDF>
<cc:Work rdf:about="">
<dc:format>image/svg+xml</dc:format>
<dc:type rdf:resource="http://purl.org/dc/dcmitype/StillImage"/><dc:title/>
</cc:Work>
</rdf:RDF>
</metadata>
<defs>
<clipPath id="a">
<path d="m0 792h612v-792h-612v792z"/>
</clipPath>
</defs>
<g transform="scale(0.30) matrix(1.25 0 0 -1.25 -17.258 685.55)">
<g clip-path="url(#a)" fill="#0057a8">
<path d="m14.441 548.39h40.123v-39.357h-40.123v39.357z"/>
<path d="m13.806 487.81h41.366v-168.1h-41.366v168.1z"/>
<path d="m365.48 352.79h73.936c-1.446 23.414-17.412 36.205-36.198 36.205-21.625 0-35.646-15.285-37.738-36.205v-33.107c1.644-16.502 12.973-39.914 37.588-39.914 16.702 0 27.744 8.264 32.812 21.215h41.147c-7.149-33.703-38.465-57.419-73.809-57.419-36.247 0-74.425 27.846-80.542 74.245 0 0-13.565-0.326-23.63-0.326-24.309 0-40.058 9.551-40.058 43.854v93.71h-25.516v33.008h27.361v60.332h38.466v-60.332h31.121v-32.785h-29.82l9e-3 -81.134c0-16.212 5.488-21.809 20.751-21.809h1.779c5.213 39.79 37.57 71.012 79.929 71.012 41.762 0 73.555-33.745 78.328-78.067l3.342 0.027v203.14h40.628v-228.76h-159.89v33.107"/>
<path d="m128.91 435.22c4.996 11.347 15.328 16.704 26.586 16.704 19.718 0 29.51-13.68 29.51-36.565v-95.697h41.366s-0.087 103.48-0.028 103.48c0 12.558-0.341 19.595-3.031 29.602-5.437 20.128-23.587 38.691-53.137 38.691-27.448 0-37.621-15.618-44.52-28.012h-0.91l0.549 24.518h-41.54v-168.28h41.337v91.567c0 9.876 1.091 17.817 3.818 23.991"/>
<path d="m572.53 342.35h4.021c3.398 0 6.514 0.174 6.514 4.267 0 3.436-2.833 3.969-5.437 3.969h-5.098v-8.236m-3.855 11.499h9.574c5.894 0 8.671-2.431 8.671-7.413 0-4.678-2.835-6.638-6.516-7.048l7.078-11.447h-4.136l-6.738 11.149h-4.078v-11.149h-3.855v25.908zm8.271-31.896c9.799 0 17.391 8.188 17.391 19.031 0 10.616-7.592 18.793-17.391 18.793-9.911 0-17.504-8.177-17.504-18.793 0-10.843 7.593-19.031 17.504-19.031m0 41.086c11.557 0 21.245-9.545 21.245-22.055 0-12.747-9.688-22.29-21.245-22.29-11.612 0-21.357 9.543-21.357 22.29 0 12.51 9.745 22.055 21.357 22.055"/>
</g>
</g>
</svg>
